<svg width="123" height="18" viewBox="0 0 123 18" fill="none" xmlns="http://www.w3.org/2000/svg"><path d="M4.43626 6.76458V.252441H.381348V17.1671H4.33011v-3.0447c.40337 2.1989 1.78331 3.2984 4.13983 3.2984 3.96996 0 4.86166-.9515 4.86166-5.6664V9.91493c0-4.7361-.8704-5.66641-4.64937-5.66641-2.54758 0-3.77892.54973-4.24597 2.51606Zm.02123 5.94122V9.42863c.10615-1.14174.84919-1.69146 2.29282-1.69146 1.95315 0 2.31406.42286 2.31406 2.30463v1.628c0 1.8395-.36091 2.2623-2.31406 2.2623-1.4224 0-2.16544-.4228-2.29282-1.2263Zm10.23281.8035c0 3.4252.7643 4.0384 4.9253 3.9115 1.9956-.0211 3.418-.8035 3.97-2.4949v2.2412h4.0337V8.62519c0-3.70008-.8917-4.37667-5.6259-4.37667h-.9766c-4.9678 0-5.9019.65544-5.9019 4.14409v.50744h4.0337c-.0425-1.45889.3184-1.71261 2.314-1.71261 1.7833 0 2.123.25372 2.123 1.71261v.71887l-4.0337.02114c-4.0973 0-4.8616.61314-4.8616 3.86924Zm4.246.0423c0-.7823.2123-.9303 1.3162-.9303l3.3331-.0212v.5497c0 .9938-.6793 1.3744-2.4627 1.4166h-.2122c-1.656 0-1.9744-.1691-1.9744-1.0148Zm10.0417-.3383c0 3.5309.8917 4.2075 5.5622 4.2075h.9766c5.3499 0 6.3265-.592 6.3265-3.6367 0-1.9451-.4883-3.108-2.5051-3.7-1.104-.31718-2.0805-.5709-4.1611-.90919-1.3799-.21143-1.762-.46515-1.762-.99373 0-.78231.4246-.99374 1.9956-.99374 1.6347 0 2.0805.29601 2.0805 1.33203v.38058h4.0337v-.38058c0-3.61551-.8917-4.27095-5.6259-4.27095h-.9766c-4.8192 0-5.7533.57087-5.7533 3.8058 0 1.69146.4458 2.64288 2.1867 3.31948 1.2738.4863 3.2057.7823 3.9487.9303 1.8682.3383 2.3141.6766 2.3141 1.184 0 .7612-.4883.9726-2.3141.9726-1.9744 0-2.5051-.2748-2.5051-1.2474v-.2749H28.978v.2749Zm14.0967-2.3681c0 5.5396.9765 6.5756 6.1779 6.5756h.9765c5.1589 0 6.1142-.6766 6.1142-4.271h-4.2459c0 1.0784-.3609 1.3109-2.3353 1.3109-2.0593 0-2.4415-.3594-2.4415-2.1989v-.0634h9.1289v-1.9875c0-5.03207-.9766-5.96238-6.2204-5.96238h-.9765c-5.2014 0-6.1779 1.01488-6.1779 6.59668Zm4.2459-1.628v-.06343c0-1.64918.3822-1.96633 2.4415-1.96633 1.9956 0 2.4202.31715 2.4414 2.02976h-4.8829Zm10.9122 7.9499h4.0337V9.83035c0-1.48003.7006-2.22004 2.1017-2.22004 1.6135 0 1.932.31715 1.932 1.96632v7.59047h4.0124l-.0212-7.46361c.0424-1.39546.743-2.09318 2.1017-2.09318 1.6135 0 1.8895.31715 1.8895 1.96632v7.59047h4.0337l-.0212-8.20362c0-3.97494-.7219-4.71496-4.6069-4.71496-2.1443 0-3.4393.90916-3.9063 2.91778-.1699-2.41034-.8705-2.91778-4.0974-2.91778-1.8895 0-2.9722.76116-3.418 2.66406V4.50224h-4.0337V17.1671Zm21.6545-6.3219c0 5.5396.9766 6.5756 6.1991 6.5756h.9766c5.1164 0 6.0717-.6766 6.0717-4.271H88.91c0 1.0784-.3609 1.3109-2.3141 1.3109-2.1017 0-2.4839-.3594-2.4839-2.1989v-.0634h9.1289v-1.9875c0-5.03207-.9766-5.96238-6.1779-5.96238h-.9766c-5.2225 0-6.1991 1.01488-6.1991 6.59668Zm4.2247-1.628v-.06343c0-1.64918.3822-1.96633 2.4839-1.96633 1.9744 0 2.399.31715 2.4202 2.02976H84.112Zm10.891 7.9499h4.0337V9.61892c.0212-1.35317.7642-2.00861 2.2293-2.00861 1.868 0 2.208.35943 2.208 2.30462v7.25217h4.033l-.021-8.20362c0-3.97494-.7-4.71496-4.394-4.71496-2.336 0-3.5671.76116-4.0553 2.81206V4.50224H95.003V17.1671Zm13.545-9.30307h1.252v5.05327c0 3.5732.828 4.2498 5.095 4.2498h2.76v-3.5944h-2.335c-1.253 0-1.486-.2114-1.486-1.2686V7.86403h3.63V4.50224h-3.63V1.77476h-3.821v2.72748h-1.465v3.36179Zm10.636 9.30307h3.63v-3.5944h-3.63v3.5944Z" fill="#EFEFEF"/></svg>